<?xml version="1.0" encoding="UTF-8" standalone="no"?>
<svg
   width="588"
   height="588"
   version="1.1"
   id="svg43"
   sodipodi:docname="turtle.svg"
   inkscape:version="1.2.1 (9c6d41e4, 2022-07-14)"
   xmlns:inkscape="http://www.inkscape.org/namespaces/inkscape"
   xmlns:sodipodi="http://sodipodi.sourceforge.net/DTD/sodipodi-0.dtd"
   xmlns="http://www.w3.org/2000/svg"
   xmlns:svg="http://www.w3.org/2000/svg">
  <defs
     id="defs47" />
  <sodipodi:namedview
     id="namedview45"
     pagecolor="#ffffff"
     bordercolor="#000000"
     borderopacity="0.25"
     inkscape:showpageshadow="2"
     inkscape:pageopacity="0.0"
     inkscape:pagecheckerboard="0"
     inkscape:deskcolor="#d1d1d1"
     showgrid="false"
     inkscape:zoom="1.0068156"
     inkscape:cx="78.961828"
     inkscape:cy="103.29598"
     inkscape:window-width="1440"
     inkscape:window-height="788"
     inkscape:window-x="0"
     inkscape:window-y="25"
     inkscape:window-maximized="0"
     inkscape:current-layer="svg43" />
  <path
     fill="white"
     transform="matrix(0.574219 0 0 0.574219 -1.52588e-05 0)"
     d="M-0 -0L1024 0L1024 1024L-0 1024L0 -0Z"
     id="path9"
     style="fill:#f5f5f5;fill-opacity:0.04313726" />
  <path
     transform="matrix(0.574219 0 0 0.574219 -1.52588e-05 0)"
     d="M504.833 26.6987L516.641 26.4774C536.808 26.8788 556.69 36.5271 570.455 51.0232C579.594 60.6482 586.194 71.8735 589.786 84.6767C595.937 106.601 593.969 130.789 593.959 153.387L593.749 206.877C596.068 208.889 601.131 210.183 604.079 211.413L620.021 218.663C639 228.356 657.375 239.905 673.756 253.588L688.213 246.922C734.322 229.349 786.571 235.675 830.792 255.494C850.616 264.379 869.721 276.158 885.444 291.256C905.763 310.767 921.93 337.961 931.871 364.07C944.669 397.684 950.654 435.487 941.184 470.712C938.277 481.524 933.771 491.986 929.202 502.19L928.922 502.163C924.402 492.614 921.145 482.181 917.418 472.282C909.804 452.059 900.375 433.43 887.194 416.238C853.262 371.98 801.998 344.074 746.996 336.749C750.844 345.195 756.204 353.14 760.439 361.443C770.196 380.572 778.144 400.499 784.436 421.027C809.328 502.228 805.981 593.313 777.358 673.072C769.015 696.32 758.324 717.866 746.777 739.637C772.174 752.03 792.464 768.506 802.5 795.805C808.959 813.374 813.694 831.483 822.123 848.298C826.483 856.996 831.492 865.785 837.94 873.117C854.841 892.334 877.683 905.655 903.23 909.236C910.6 910.269 917.943 909.965 925.323 910.55C927.397 910.714 928.569 911.462 929.885 913C929.944 914.065 930.175 914.75 929.658 915.723C928.375 918.136 923.597 920.461 921.195 921.705C912.205 926.358 903.069 930.546 893.247 933.111C863.527 940.873 831.127 937.646 802.074 928.768C787.391 924.281 773.771 918.763 760.5 910.919C735.688 896.255 712.505 874.142 698.794 848.685C693.068 838.053 689.18 826.934 686.201 815.265C684.76 815.723 683.027 817.705 681.883 818.743L670.595 829.114C663.96 834.961 656.735 840.389 649.569 845.568C625.785 862.758 598.171 876.364 569.852 884.183C569.541 885.049 569.612 884.707 569.49 885.567L562.296 919.066C559.33 930.105 555.687 940.905 551.363 951.486C544.766 967.626 536.742 983.575 521.149 992.567C519.174 993.539 516.658 994.282 514.451 994.447C483.092 996.786 465.067 927.039 459.957 903.637L457.5 889.519C457.394 888.755 457.271 885.511 456.91 884.999C456.221 884.021 450.057 882.765 448.668 882.339C437.497 878.911 426.601 874.526 416.122 869.366C399.995 861.424 384.881 852.423 370.448 841.682C360.229 834.076 350.6 825.573 340.996 817.214C339.904 817.984 338.861 820.986 338.266 822.269L330.316 840.345C328.371 844.613 326.239 848.812 323.831 852.839C317.237 863.868 308.657 873.681 299.289 882.441C261.263 918.003 206.758 938.518 154.779 936.557C137.904 935.921 121.053 931.312 105.816 924.165C101.852 922.306 96.8242 919.957 93.8422 916.75C93.3301 915.128 93.2794 914.415 93.6216 912.75C94.649 911.895 95.7468 911.114 97.0653 910.779C100.583 909.883 105.261 910.447 108.953 910.208C115.068 909.812 121.153 908.852 127.141 907.563C134.86 905.902 142.47 903.169 149.697 900.017C180.244 886.694 200.234 861.969 210.911 830.816C215.213 818.262 218.198 805.042 223.068 792.731C225.694 786.093 228.708 779.633 232.774 773.738C244.392 756.892 260.821 747.525 279.18 739.561L266.023 714.609C253.201 687.722 243.783 659.344 236.922 630.383C231.414 607.135 228.547 582.827 227.321 559C223.324 481.306 238.421 404.43 279.526 337.706C250.663 342.44 219.162 350.743 194.16 366.186C164.898 384.261 138.621 410.404 121.623 440.429C110.325 460.386 102.858 481.721 97.62 503.988C94.8002 499.665 92.4723 494.139 90.5029 489.356C73.3562 447.716 76.4111 399.962 93.5886 358.793C113.688 310.619 148.099 273.422 196.787 253.561C218.165 244.841 240.303 239.046 263.406 237.683C293.173 235.928 323.114 242.127 350.483 253.627L377.815 234.041C386.596 228.225 396.097 222.888 405.492 218.13L425.399 209.048C426.136 208.737 430.758 207.111 431.037 206.685C431.44 206.071 431.02 198.433 431.025 197.198L431.095 143.712C431.087 129.794 430.27 115.271 431.947 101.435C433.873 85.5499 439.462 70.0094 449.362 57.3161C463.329 39.4075 482.49 29.4157 504.833 26.6987Z"
     id="path11" />
  <path
     fill="white"
     transform="matrix(0.574219 0 0 0.574219 -1.52588e-05 0)"
     d="M472.15 56.75L472.788 56.5694C475.438 57.8397 478.057 64.1171 479.196 66.8765C483.104 76.344 482.594 87.6856 478.642 97.0457C477.004 100.926 473.558 107.072 469.5 108.709L468.049 107.676C461.714 100.455 455.703 90.6152 456.225 80.5855C456.721 71.0421 465.499 62.6859 472.15 56.75Z"
     id="path13" />
  <path
     fill="white"
     transform="matrix(0.574219 0 0 0.574219 -1.52588e-05 0)"
     d="M552.334 56.2222L558.229 61.25C562.985 65.6356 568.227 72.588 568.366 79.25C568.578 89.4957 563.985 99.3702 557.107 106.737C556.344 107.587 555.909 108.256 554.75 108.523L553.32 107.399C546.655 101.649 543.465 92.7615 542.709 84.2098C541.753 73.3835 545.497 64.3297 552.334 56.2222Z"
     id="path15" />
  <path
     fill="white"
     transform="matrix(0.574219 0 0 0.574219 -1.52588e-05 0)"
     d="M476.224 888.393C490.876 890.722 504.975 891.844 519.804 891.532C526.488 891.391 533.334 890.556 539.975 889.792C542.386 889.514 548.205 888.073 550.294 888.824C545.395 910.77 540.54 932.305 531 952.824L528.208 958.231C525.749 962.718 519.289 973.472 513.75 974.465C511.852 974.806 510.483 974.216 508.994 973.088C492.12 960.297 478.762 909.159 476.224 888.393Z"
     id="path17"
     style="fill:#008000" />
  <path
     fill="white"
     transform="matrix(0.574219 0 0 0.574219 -1.52588e-05 0)"
     d="M501.255 212.709C510.108 211.92 519.723 212.561 528.573 213.38C550.023 215.365 570.556 220.239 590.87 227.329L572.158 236.77C547.712 250.487 527.598 268.961 510.728 291.254L509.893 292.25C509.595 292.317 509.302 292.494 509 292.451C508.93 292.441 500.322 282.354 499.299 281.255C477.625 257.96 453.1 240.8 422.559 231.166C430.729 227.655 438.886 224.289 447.408 221.71C465.018 216.383 482.95 213.809 501.255 212.709Z"
     id="path19"
     style="fill:#003d00;fill-opacity:1" />
  <path
     fill="white"
     transform="matrix(0.574219 0 0 0.574219 -1.52588e-05 0)"
     d="M274.53 686.699C281.487 694.493 289.057 701.929 297.804 707.725C313.915 718.4 334.549 723.337 353.75 722.964C354.813 722.944 362.761 722.287 363.112 722.544C363.114 722.545 363.713 723.864 363.783 724.019L367.394 732.114C371.958 742.324 376.589 752.47 382.297 762.103C397.621 787.959 416.269 808.645 439.976 827.111C436.05 831.963 432.804 836.815 429.804 842.278L425.828 853.026C410.854 846.573 396.815 837.15 383.808 827.399C335.749 791.372 297.352 742.381 274.53 686.699Z"
     id="path21"
     style="fill:#003d00;fill-opacity:1" />
  <path
     fill="white"
     transform="matrix(0.574219 0 0 0.574219 -1.52588e-05 0)"
     d="M510.918 765.467C514.625 769.61 517.491 774.964 520.719 779.55C525.515 786.363 530.891 792.789 536.438 799.001C543.437 806.837 551.353 813.85 559.306 820.696C566.736 827.091 574.099 833.074 580.323 840.739C584.323 845.665 587.314 850.967 590.293 856.535C564.022 866.906 538.155 871.68 510.035 872.178C490.692 871.899 471.505 868.883 452.978 863.343C445.13 860.996 436.967 858.261 429.631 854.565C434.352 846.949 439.82 839.811 446.246 833.547C450.585 829.317 455.521 825.689 460.194 821.84L480.159 803.991C491.958 792.346 501.302 778.884 510.918 765.467Z"
     id="path23"
     style="fill:#003d00;fill-opacity:1" />
  <path
     fill="white"
     transform="matrix(0.574219 0 0 0.574219 -1.52588e-05 0)"
     d="M756.053 675.078C755.567 677.009 754.861 678.816 754.111 680.656C733.763 730.532 703.135 774.722 662.734 810.455C641.99 828.804 618.995 844.509 593.375 855.246L590.706 844.849C588.472 838.109 585.171 832.864 580.312 827.729C586.327 823.782 591.683 818.739 596.874 813.781C623.759 788.101 642.024 755.592 655.374 721.182L681.524 718.304C690.326 716.69 699.409 714.597 707.747 711.319C719.794 706.582 730.618 699.408 740.507 691.138C746.087 686.471 751.919 681.084 756.053 675.078Z"
     id="path25"
     style="fill:#003d00;fill-opacity:1" />
  <path
     fill="white"
     transform="matrix(0.574219 0 0 0.574219 -1.52588e-05 0)"
     d="M735.862 756.167L736.556 756.422C752.091 762.544 766.376 771.625 775.942 785.588C780.488 792.225 783.932 799.994 786.663 807.533C790.696 818.665 793.784 830.093 798.449 841C808.816 865.237 823.366 890.511 845.652 905.579C853.968 911.202 862.836 915.078 872.104 918.788C861.115 919.36 850.837 918.96 839.883 917.914C812.073 913.961 786.557 905.673 762.828 890.365C740.367 875.876 720.359 854.571 710.248 829.627C706.362 820.042 704.028 809.924 701.822 799.849C703.041 797.673 705.308 795.768 706.982 793.867L715.384 783.77L735.862 756.167Z"
     id="path27"
     style="fill:#008000" />
  <path
     fill="white"
     transform="matrix(0.574219 0 0 0.574219 -1.52588e-05 0)"
     d="M288.647 754.841C290.572 756.815 292.157 759.631 293.752 761.911L303.895 776.056L327.472 803.789C327.61 805.602 323.582 811.767 322.621 813.729L309.613 840.722C307.913 843.867 306.029 846.903 303.982 849.834C283.563 879.071 248.33 900.379 214.683 910.716C205.635 913.495 196.523 915.223 187.224 916.86C175.117 918.698 163.079 919.591 150.835 919.084C153.517 917.532 156.882 916.774 159.771 915.586C195.691 900.816 217.986 866.698 230.452 831.392C234.381 820.263 236.58 808.49 241.138 797.586C250.497 775.2 266.905 763.822 288.647 754.841Z"
     id="path29"
     style="fill:#008000" />
  <path
     fill="white"
     transform="matrix(0.574219 0 0 0.574219 -1.52588e-05 0)"
     d="M735.079 255.207L742.53 254.917C788.431 254.411 840.043 272.801 873.097 305.221C886.954 318.812 897.784 335.172 906.5 352.447C913.574 366.469 919.286 380.778 922.627 396.163C926.297 413.059 927.316 430.011 927.493 447.236L910.619 417.369C879.87 371.221 830.337 337.497 776.61 324.426C764.409 321.458 752.116 319.221 739.682 317.484C738.18 317.274 734.72 317.231 733.491 316.632C732.757 316.274 731.177 313.728 730.63 313.007L721.732 301.444C711.505 288.516 700.081 276.765 687.854 265.722C703.689 260.405 718.354 256.369 735.079 255.207Z"
     id="path31"
     style="fill:#008000" />
  <path
     fill="white"
     transform="matrix(0.574219 0 0 0.574219 -1.52588e-05 0)"
     d="M267.004 256.25C284.129 255.082 301.829 257.678 318.436 261.7C324.236 263.105 330.007 264.34 335.428 266.903C334.987 268.55 325.776 277.022 324.05 278.797C314.45 288.668 305.459 299.262 297.203 310.275C296.103 311.743 293.394 316.676 292.082 317.355C291.399 317.709 289.103 317.733 288.263 317.843L276.465 319.541L255.75 323.503C243.698 326.308 231.422 329.389 219.822 333.69C181.51 347.897 149.672 372.383 124.13 403.982C118.246 411.453 112.658 419.053 107.767 427.223L97.4525 446.535C97.2668 445.593 97.1731 444.742 97.1221 443.778C94.6364 396.869 112.165 347.362 143.781 312.488C175.074 277.971 220.722 258.361 267.004 256.25Z"
     id="path33"
     style="fill:#008000" />
  <path
     fill="white"
     transform="matrix(0.574219 0 0 0.574219 -1.52588e-05 0)"
     d="M510.99 42.7015C524.352 42.6075 534.647 45.9049 546.266 52.09C543.739 54.4153 541.417 57.2288 539.728 60.2259C533.873 70.6203 533.36 83.6697 536.52 95C538.544 102.259 543.733 111.583 550.628 115.2C552.909 116.396 555.659 116.449 558.09 115.686C565.469 113.37 571.076 101.25 574.216 94.7627C577.122 110.75 576.038 127.334 575.979 143.538L576.006 201.737C556.594 197.383 537.228 194.091 517.306 193.494C504.176 193.467 491.341 193.884 478.316 195.643C468.507 196.968 458.803 199.168 449.123 201.203L449.106 142.829C449.131 126.996 448.745 111.192 450.911 95.4828L455.844 104.727C458.735 109.361 462.984 115.046 468.66 116.123C471.238 116.611 474.053 115.312 476.05 113.765C483.634 107.889 488.428 97.6622 489.408 88.2293C490.849 74.3662 487.809 62.8238 478.978 52.0449C488.776 46.092 499.674 43.5033 510.99 42.7015Z"
     id="path35"
     style="fill:#008000" />
  <path
     fill="white"
     transform="matrix(0.574219 0 0 0.574219 -1.52588e-05 0)"
     d="M602.398 232.476C607.554 235.411 613.401 237.519 618.672 240.355C631.587 247.304 644.418 255.666 656.07 264.597C725.229 317.605 766.897 400.174 778.169 485.731C783.558 526.635 782.559 569.51 774.563 610C773.102 617.394 771.858 625.127 769.305 632.238C765.126 643.883 758.461 655.058 750.91 664.82C737.373 682.321 718.856 696.022 697.898 703.246C685.251 707.605 671.767 709.833 658.54 711.496C662.967 697.676 667.477 683.577 670.343 669.34C672.953 656.374 674.129 643.597 675.346 630.47L669.049 630.45L668.334 637.503C667.602 642.932 666.111 648.25 664.832 653.569L657.345 681.402C644.135 724.406 627.029 764.994 596.63 798.995C589.97 806.444 582.946 813.781 574.981 819.848C563.968 811.637 553.744 801.943 544.294 791.993C535.077 782.289 526.649 771.969 518.709 761.201C517.849 760.034 515.345 757.383 515.09 756.224C514.857 755.171 515.277 752.98 515.322 751.84L515.695 739.458L515.598 695.422C515.386 676.018 515.022 656.542 512.804 637.248C512.557 635.094 512.366 629.839 511.354 628.25C511.068 627.801 510.618 627.481 510.25 627.096C508.537 628.565 508.394 634.553 508.098 636.976C504.29 668.148 504.531 700.317 505.028 731.688L505.624 750.321C505.677 751.752 506.2 755.435 505.75 756.66C505.202 758.153 503.126 760.436 502.154 761.816C495.147 771.753 487.397 780.988 479.188 789.941L446.678 819.612C444.64 818.831 442.7 817.054 441.05 815.644L430.403 805.658C395.968 771.459 374.327 726.773 360.239 680.791C356.598 668.908 353.09 656.539 351.015 644.289C350.658 642.186 350.765 639.243 349.75 637.4C347.984 637.613 347.128 637.544 345.673 638.61C345.389 643.424 345.99 648.333 346.363 653.134C347.988 674.079 353.238 693.208 359.941 713.024C348.013 713.163 335.896 711.378 324.518 707.763C313.192 704.164 301.959 698.788 292.618 691.372C280.46 681.718 271.64 668.908 264.588 655.217C259.127 644.617 256.932 631.257 254.45 619.548C244.135 570.886 242.995 520.57 250.933 471.5C253.541 455.378 256.887 439.497 261.866 423.926C268.617 402.812 276.773 382.123 287.265 362.565C315.688 309.587 358.685 264.409 412.325 236.758C439.963 243.94 464.591 260.816 484.75 280.636C491.034 286.815 497.376 293.349 502.29 300.687C502.693 301.289 503.963 302.803 504.102 303.462C504.377 304.764 504.186 306.706 504.207 308.059L504.256 319.007L504.481 356.026L514.013 356.224L513.978 303.921C516.846 298.119 521.961 292.805 526.197 287.894C538.217 273.96 552.11 261.024 567.491 250.865C578.512 243.585 590.358 237.836 602.398 232.476Z"
     id="path37"
     style="fill:#003d00;fill-opacity:1" />
  <path
     transform="matrix(0.574219 0 0 0.574219 -1.52588e-05 0)"
     d="M364.666 364.75L365.354 364.616C369.343 364.174 373.683 364.592 377.702 364.721L397.943 365.115L420.106 364.97C425.555 364.821 431.131 364.346 436.573 364.585C438.345 364.663 440.835 364.718 442.261 365.915C443.503 366.959 443.377 367.235 443.448 368.75C440.749 372.047 433.197 371.81 429 373.535C423.497 375.797 420.739 380.168 419.239 385.728C417.653 391.61 417.517 397.951 417.395 404.002L417.207 426.535L417.315 508.276C417.424 525.506 418.336 543.297 416.72 560.431C415.874 569.405 414.297 578.46 410.772 586.801C404.152 602.462 392.019 614.542 376.206 620.964C358.045 628.34 332.97 628.625 314.88 620.881C312.125 619.461 309.708 617.969 307.438 615.838C301.39 610.158 296.603 601.177 296.589 592.75C296.582 588.996 299.453 585.9 301.499 583C303.756 579.801 305.861 576.449 308.601 573.634C310.187 573.318 310.733 573.288 311.847 574.67C313.41 576.609 314.356 580.194 315.232 582.531C318.615 591.555 323.322 599.799 331.675 605.082C340.206 610.478 352.145 612.63 362.046 610.273C370.778 608.195 378.195 603.507 382.84 595.753C388.547 586.226 390.442 573.822 391.48 562.942C392.477 552.491 392.021 541.732 391.936 531.24L391.548 483.825L391.35 427.627L391.151 404.949C391.02 398.932 390.874 392.74 389.393 386.877C386.617 375.891 378.877 373.617 369.046 371.635C367.274 371.278 364.67 370.919 363.192 369.91C362.072 369.145 362.132 368.49 361.859 367.25C362.633 365.789 363.263 365.494 364.666 364.75Z"
     id="path39"
     style="fill:#ffffff" />
  <path
     transform="matrix(0.574219 0 0 0.574219 -1.52588e-05 0)"
     d="M703.388 363.21C709.091 362.753 720.235 361.79 724.75 365.499C725.241 366.548 725.521 366.715 725.322 367.91C724.648 371.969 719.392 371.624 716.25 372.423C713.869 373.028 711.443 373.92 709.45 375.39C704.69 378.899 703.396 383.822 702.344 389.25C700.52 398.662 701.162 409.008 701.141 418.593L701.119 462.766L701.005 545.329L701.134 585.662C701.269 589.543 701.298 593.459 702.719 597.123C705.995 605.569 715.32 606.037 722.815 608.462C725.129 609.211 727.577 609.95 728.689 612.355C729.299 613.672 728.864 614.633 728.357 615.863C727.693 616.425 727.081 616.933 726.225 617.174C724.306 617.713 721.971 617.208 720.033 616.944L707.837 615.187C702.319 614.447 696.63 613.862 691.068 613.624C683.481 613.3 676.132 614.092 668.632 615.089C664.265 615.67 652.709 617.987 649.045 615.377C647.621 614.363 647.689 613.583 647.488 612C648.226 610.417 649.66 609.778 651.214 609.154C657.868 606.483 667.039 607.176 672.305 601.706C675.036 598.869 675.963 594.927 676.361 591.127C677.144 583.657 676.552 575.467 676.558 567.918L676.532 520.383L676.391 383.838L663.238 424.824L627.992 532.97L613.81 577.924C609.323 592.609 605.382 609.293 597.896 622.688C594.061 617.02 592.047 609.77 589.698 603.342L575.444 561.84L552.497 492.416L523.047 400.129L517.747 384.352L517.56 580.058C517.753 588.13 518.639 599.123 526.44 603.596C530.075 605.681 534.559 606.656 538.536 607.88C540.565 608.505 543.053 609.109 544.509 610.75C545.535 611.905 545.426 612.823 545.278 614.25C544.383 615.239 543.556 615.832 542.252 616.206C537.669 617.523 530.88 615.807 526.138 615.207L512.856 614.119C506.407 613.87 500.126 614.499 493.741 615.273C489.107 615.834 479.765 617.754 475.75 615.255C474.368 614.395 474.233 613.786 474.006 612.25C475.554 608.205 484.98 606.914 488.959 605.17C491.783 603.933 494.2 602.261 496.142 599.845C498.897 596.416 499.982 592.181 500.387 587.878C501.348 577.678 500.585 566.837 500.565 556.577L500.511 496.636L500.531 430.245C500.518 416.711 501.194 402.507 499.503 389.089C498.674 382.504 496.042 376.827 489.697 374.062C487.433 373.074 484.884 372.686 482.52 371.968C481.061 371.525 479.122 371.077 478.038 369.951C477.196 369.076 476.877 368.04 477.305 366.871C477.757 365.637 478.809 364.971 480.03 364.684C482.306 364.148 485.165 364.589 487.496 364.758L498.169 365.316C503.047 365.438 531.216 364.497 533.763 366.048C535.763 367.267 536.783 370.407 537.651 372.508L549.988 406.686L571.253 469.907L595.42 540.183L602.898 566.108L667.487 367.694L703.388 363.21Z"
     id="path41"
     style="fill:#ffffff" />
</svg>
